<svg width="35" height="33" viewBox="0 0 35 33" fill="none" xmlns="http://www.w3.org/2000/svg">
<g filter="url(#filter0_d_2_2)">
<path d="M25.6522 0.439275C26.2379 -0.146458 27.1874 -0.146351 27.7732 0.439275C28.359 1.02506 28.359 1.97458 27.7732 2.56037L19.2879 11.0447L29.8953 21.6522C30.4809 22.2378 30.4807 23.1875 29.8953 23.7733C29.3095 24.359 28.359 24.359 27.7732 23.7733L17.1668 13.1668L6.56035 23.7733C5.97457 24.359 5.02505 24.359 4.43926 23.7733C3.85363 23.1875 3.85353 22.2379 4.43926 21.6522L15.0457 11.0457L6.56035 2.56037C5.97474 1.97461 5.97473 1.02503 6.56035 0.439275C7.1461 -0.146468 8.09565 -0.146382 8.68145 0.439275L17.1668 8.92365L25.6522 0.439275Z" fill="#828C51"/>
</g>
<defs>
<filter id="filter0_d_2_2" x="0" y="0" width="34.3344" height="32.2126" filterUnits="userSpaceOnUse" color-interpolation-filters="sRGB">
<feFlood flood-opacity="0" result="BackgroundImageFix"/>
<feColorMatrix in="SourceAlpha" type="matrix" values="0 0 0 0 0 0 0 0 0 0 0 0 0 0 0 0 0 0 127 0" result="hardAlpha"/>
<feOffset dy="4"/>
<feGaussianBlur stdDeviation="2"/>
<feComposite in2="hardAlpha" operator="out"/>
<feColorMatrix type="matrix" values="0 0 0 0 0 0 0 0 0 0 0 0 0 0 0 0 0 0 0.25 0"/>
<feBlend mode="normal" in2="BackgroundImageFix" result="effect1_dropShadow_2_2"/>
<feBlend mode="normal" in="SourceGraphic" in2="effect1_dropShadow_2_2" result="shape"/>
</filter>
</defs>
</svg>
